<svg xmlns="http://www.w3.org/2000/svg" width="1200" height="600" viewBox="0 0 1200 600" role="img" aria-labelledby="title desc">
  <title id="title">Kiri-san scissors cutting a subscription cord in a quiet morning hero scene</title>
  <desc id="desc">Kiri-san appears as a gentle scissors silhouette cutting a terracotta subscription cord as the sky opens into a calm light horizon.</desc>
  <defs>
    <linearGradient id="sky-light" x1="0" y1="0" x2="1" y2="1">
      <stop offset="0" stop-color="#e6f4f4"/>
      <stop offset="1" stop-color="#fbf8f3"/>
    </linearGradient>
  </defs>

  <rect width="1200" height="600" fill="url(#sky-light)"/>
  <circle cx="1010" cy="116" r="92" fill="#fbf8f3" opacity=".72"/>
  <path d="M0 428C128 394 252 420 376 390c136-32 248-95 392-75 147 20 268 96 432 58v227H0Z" fill="#0a7c7c" opacity=".08"/>
  <path d="M0 502C164 472 286 485 418 468c172-22 282-82 432-62 120 16 212 74 350 48v146H0Z" fill="#0a7c7c" opacity=".12"/>
  <path d="M602 456C716 460 830 488 966 560" stroke="#0a7c7c" stroke-width="2" opacity=".26"/>
  <path d="M522 460C650 488 746 538 820 600" stroke="#0a7c7c" stroke-width="1.5" opacity=".2"/>

  <path d="M78 334C170 362 260 324 352 342" stroke="#b85c3d" stroke-width="2.5"/>
  <path d="M462 338C576 294 738 316 930 250" stroke="#b85c3d" stroke-width="2.5"/>
  <path d="M430 330l34-29" stroke="#b85c3d" stroke-width="2.5" stroke-linecap="round"/>
  <path d="M432 350l42 21" stroke="#b85c3d" stroke-width="2.5" stroke-linecap="round"/>

  <g fill="#fbf8f3" stroke="#b85c3d" stroke-width="1.5" stroke-linejoin="round" opacity=".82">
    <rect x="118" y="254" width="72" height="48" rx="12" transform="rotate(-9 154 278)"/>
    <path d="M137 272h32M137 286h20" transform="rotate(-9 154 278)"/>
    <rect x="788" y="202" width="76" height="52" rx="12" transform="rotate(7 826 228)"/>
    <path d="M810 220h28M810 235h18" transform="rotate(7 826 228)"/>
    <rect x="906" y="300" width="64" height="44" rx="11" transform="rotate(-13 938 322)" opacity=".72"/>
    <path d="M925 316h22M925 329h14" transform="rotate(-13 938 322)" opacity=".72"/>
  </g>

  <g fill="none" stroke="#0a7c7c" stroke-width="2" stroke-linecap="round" opacity=".38">
    <path d="M668 210c44-18 92-20 142-7"/>
    <path d="M716 176c24-8 50-9 78-2"/>
    <path d="M856 152c32-9 62-8 92 3"/>
  </g>

  <g transform="translate(236 260) scale(1.18)" fill="none" stroke="#1a1f2e" stroke-width="2.5" stroke-linecap="round" stroke-linejoin="round">
    <ellipse cx="102" cy="176" rx="78" ry="8" fill="#1a1f2e" stroke="none" opacity=".08"/>
    <path d="M110 94C150 64 193 44 240 36c-34 29-78 58-126 74" fill="#0a7c7c"/>
    <path d="M113 116c48 8 92 28 130 58-54-3-98-17-138-42" fill="#0a7c7c"/>
    <path d="M61 122c-25 7-42 29-38 51 4 21 25 31 44 23 18-8 27-31 19-50" fill="#fbf8f3"/>
    <path d="M105 131c-13 15-13 38 1 52 14 14 37 9 45-9 8-18-3-40-24-47" fill="#fbf8f3"/>
    <path d="M44 159c-7 10-3 24 8 28 12 4 26-7 25-22-1-11-9-19-19-20"/>
    <path d="M116 158c-7 10-3 24 8 28 12 4 26-7 25-22-1-11-9-19-19-20"/>
    <path d="M69 120c16-10 35-15 58-12"/>
    <circle cx="94" cy="106" r="27" fill="#fbf8f3"/>
    <circle cx="94" cy="106" r="7" fill="#b85c3d"/>
    <path d="M82 100c4-3 8-2 11 1"/>
    <path d="M97 101c4-2 8-1 11 2"/>
    <path d="M82 116c8 8 18 8 26 0"/>
  </g>

  <g fill="#0a7c7c" opacity=".32">
    <circle cx="688" cy="280" r="3"/>
    <circle cx="734" cy="262" r="2.5"/>
    <circle cx="786" cy="284" r="2"/>
  </g>
</svg>
