<svg xmlns="http://www.w3.org/2000/svg" width="1200" height="600" viewBox="0 0 1200 600" role="img" aria-labelledby="title desc">
  <title id="title">Kiri-san scissors cutting a subscription cord in a quiet night hero scene</title>
  <desc id="desc">Kiri-san appears as a gentle scissors silhouette cutting a terracotta subscription cord under a calm dark sky with an open horizon.</desc>
  <defs>
    <linearGradient id="sky-dark" x1="0" y1="0" x2="1" y2="1">
      <stop offset="0" stop-color="#131c2e"/>
      <stop offset="1" stop-color="#1a2540"/>
    </linearGradient>
  </defs>

  <rect width="1200" height="600" fill="url(#sky-dark)"/>
  <circle cx="996" cy="118" r="74" fill="#f0f3f8" opacity=".16"/>
  <circle cx="966" cy="94" r="54" fill="#1a2540"/>
  <g fill="#f0f3f8" opacity=".42">
    <circle cx="218" cy="94" r="2.5"/>
    <circle cx="384" cy="72" r="2"/>
    <circle cx="642" cy="110" r="2.5"/>
    <circle cx="816" cy="78" r="2"/>
    <circle cx="1054" cy="206" r="2.5"/>
  </g>
  <path d="M0 430C130 398 250 420 378 390c134-31 248-94 390-75 148 20 270 96 432 58v227H0Z" fill="#1a2540" opacity=".72"/>
  <path d="M0 506C170 474 298 488 432 466c170-28 278-84 424-61 122 19 218 76 344 52v143H0Z" fill="#5cb9b9" opacity=".09"/>
  <path d="M604 456C716 462 828 490 968 560" stroke="#5cb9b9" stroke-width="2" opacity=".28"/>
  <path d="M524 460C650 489 748 538 820 600" stroke="#5cb9b9" stroke-width="1.5" opacity=".22"/>

  <path d="M78 334C170 362 260 324 352 342" stroke="#b85c3d" stroke-width="2.5"/>
  <path d="M462 338C576 294 738 316 930 250" stroke="#b85c3d" stroke-width="2.5"/>
  <path d="M430 330l34-29" stroke="#b85c3d" stroke-width="2.5" stroke-linecap="round"/>
  <path d="M432 350l42 21" stroke="#b85c3d" stroke-width="2.5" stroke-linecap="round"/>

  <g fill="#1a2540" stroke="#b85c3d" stroke-width="1.5" stroke-linejoin="round" opacity=".84">
    <rect x="118" y="254" width="72" height="48" rx="12" transform="rotate(-9 154 278)"/>
    <path d="M137 272h32M137 286h20" transform="rotate(-9 154 278)"/>
    <rect x="788" y="202" width="76" height="52" rx="12" transform="rotate(7 826 228)"/>
    <path d="M810 220h28M810 235h18" transform="rotate(7 826 228)"/>
    <rect x="906" y="300" width="64" height="44" rx="11" transform="rotate(-13 938 322)" opacity=".72"/>
    <path d="M925 316h22M925 329h14" transform="rotate(-13 938 322)" opacity=".72"/>
  </g>

  <g fill="none" stroke="#5cb9b9" stroke-width="2" stroke-linecap="round" opacity=".42">
    <path d="M668 210c44-18 92-20 142-7"/>
    <path d="M716 176c24-8 50-9 78-2"/>
    <path d="M856 152c32-9 62-8 92 3"/>
  </g>

  <g transform="translate(236 260) scale(1.18)" fill="none" stroke="#131c2e" stroke-width="2.5" stroke-linecap="round" stroke-linejoin="round">
    <ellipse cx="102" cy="176" rx="78" ry="8" fill="#131c2e" stroke="none" opacity=".48"/>
    <path d="M110 94C150 64 193 44 240 36c-34 29-78 58-126 74" fill="#5cb9b9"/>
    <path d="M113 116c48 8 92 28 130 58-54-3-98-17-138-42" fill="#5cb9b9"/>
    <path d="M61 122c-25 7-42 29-38 51 4 21 25 31 44 23 18-8 27-31 19-50" fill="#f0f3f8"/>
    <path d="M105 131c-13 15-13 38 1 52 14 14 37 9 45-9 8-18-3-40-24-47" fill="#f0f3f8"/>
    <path d="M44 159c-7 10-3 24 8 28 12 4 26-7 25-22-1-11-9-19-19-20"/>
    <path d="M116 158c-7 10-3 24 8 28 12 4 26-7 25-22-1-11-9-19-19-20"/>
    <path d="M69 120c16-10 35-15 58-12"/>
    <circle cx="94" cy="106" r="27" fill="#f0f3f8"/>
    <circle cx="94" cy="106" r="7" fill="#b85c3d"/>
    <path d="M82 100c4-3 8-2 11 1"/>
    <path d="M97 101c4-2 8-1 11 2"/>
    <path d="M82 116c8 8 18 8 26 0"/>
  </g>

  <g fill="#5cb9b9" opacity=".36">
    <circle cx="688" cy="280" r="3"/>
    <circle cx="734" cy="262" r="2.5"/>
    <circle cx="786" cy="284" r="2"/>
  </g>
</svg>
